<svg xmlns="http://www.w3.org/2000/svg">
    <defs>
      <symbol id="loader" viewBox="0 0 14 14">
        <g fill="none" fill-rule="evenodd">

  <circle
          cx="7"
          cy="7"
          r="6"
          stroke="currentColor"
          stroke-opacity=".3"
          stroke-width="2"
        />

  <path
          fill="currentColor"
          fill-opacity=".8"
          fill-rule="nonzero"
          d="M7 0a7 7 0 0 1 7 7h-2a5 5 0 0 0-5-5V0z"
        />

  </g>
      </symbol>
      <symbol id="arrowDown" viewBox="0 0 24 24">
        <g>
          <path
          d="M5.70711 9.71069C5.31658 10.1012 5.31658 10.7344 5.70711 11.1249L10.5993 16.0123C11.3805 16.7927 12.6463 16.7924 13.4271 16.0117L18.3174 11.1213C18.708 10.7308 18.708 10.0976 18.3174 9.70708C17.9269 9.31655 17.2937 9.31655 16.9032 9.70708L12.7176 13.8927C12.3271 14.2833 11.6939 14.2832 11.3034 13.8927L7.12132 9.71069C6.7308 9.32016 6.09763 9.32016 5.70711 9.71069Z"
          fill="currentColor"
        />
        </g>
      </symbol>
       <symbol id="arrowUp" viewBox="0 0 24 24">
        <g>
          <path
          d="M18.2929 15.2893C18.6834 14.8988 18.6834 14.2656 18.2929 13.8751L13.4007 8.98766C12.6195 8.20726 11.3537 8.20757 10.5729 8.98835L5.68257 13.8787C5.29205 14.2692 5.29205 14.9024 5.68257 15.2929C6.0731 15.6835 6.70626 15.6835 7.09679 15.2929L11.2824 11.1073C11.673 10.7168 12.3061 10.7168 12.6966 11.1073L16.8787 15.2893C17.2692 15.6798 17.9024 15.6798 18.2929 15.2893Z"
          fill="currentColor"
        />
        </g>
      </symbol>
      <symbol id="arrowPrev" viewBox="0 0 24 24">
        <g>
        <path
          d="M14.2893 5.70708C13.8988 5.31655 13.2657 5.31655 12.8751 5.70708L7.98768 10.5993C7.20729 11.3805 7.2076 12.6463 7.98837 13.427L12.8787 18.3174C13.2693 18.7079 13.9024 18.7079 14.293 18.3174C14.6835 17.9269 14.6835 17.2937 14.293 16.9032L10.1073 12.7175C9.71678 12.327 9.71678 11.6939 10.1073 11.3033L14.2893 7.12129C14.6799 6.73077 14.6799 6.0976 14.2893 5.70708Z"
          fill="currentColor"
        />
        </g>
      </symbol>
      <symbol id="arrowNext" viewBox="0 0 24 24">
        <g>
        <path
          d="M9.71069 18.2929C10.1012 18.6834 10.7344 18.6834 11.1249 18.2929L16.0123 13.4006C16.7927 12.6195 16.7924 11.3537 16.0117 10.5729L11.1213 5.68254C10.7308 5.29202 10.0976 5.29202 9.70708 5.68254C9.31655 6.07307 9.31655 6.70623 9.70708 7.09676L13.8927 11.2824C14.2833 11.6729 14.2833 12.3061 13.8927 12.6966L9.71069 16.8787C9.32016 17.2692 9.32016 17.9023 9.71069 18.2929Z"
          fill="currentColor"
        />
        </g>
      </symbol>
      <symbol id="home" viewBox="0 0 32 32">
        <g>
       <path
          d="M27 18.039L16 9.501 5 18.039V14.56l11-8.54 11 8.538v3.481zm-2.75-.31v8.251h-5.5v-5.5h-5.5v5.5h-5.5v-8.25L16 11.543l8.25 6.186z"
          fill="currentColor"
        />
        </g>
      </symbol>
      <symbol id="user" viewBox="0 0 32 32">
        <g>
       <path
          d="M16 15.503A5.041 5.041 0 1 0 16 5.42a5.041 5.041 0 0 0 0 10.083zm0 2.215c-6.703 0-11 3.699-11 5.5v3.363h22v-3.363c0-2.178-4.068-5.5-11-5.5z"
          fill="currentColor"
        />
        </g>
      </symbol>
       <symbol id="favorite" viewBox="0 0 32 32">
        <g>
       <path
          d="M16 4.588l2.833 8.719H28l-7.416 5.387 2.832 8.719L16 22.023l-7.417 5.389 2.833-8.719L4 13.307h9.167L16 4.588z"
          fill="currentColor"
        />
        </g>
      </symbol>
      <symbol id="search" viewBox="0 0 32 32">
        <g>
        <path
          d="M27 24.57l-5.647-5.648a8.895 8.895 0 0 0 1.522-4.984C22.875 9.01 18.867 5 13.938 5 9.01 5 5 9.01 5 13.938c0 4.929 4.01 8.938 8.938 8.938a8.887 8.887 0 0 0 4.984-1.522L24.568 27 27 24.57zm-13.062-4.445a6.194 6.194 0 0 1-6.188-6.188 6.195 6.195 0 0 1 6.188-6.188 6.195 6.195 0 0 1 6.188 6.188 6.195 6.195 0 0 1-6.188 6.188z"
          fill="currentColor"
        />
        </g>
      </symbol>
    </defs>
</svg>
